<?xml version="1.0" standalone="no"?>
<!DOCTYPE svg PUBLIC "-//W3C//DTD SVG 20010904//EN"
 "http://www.w3.org/TR/2001/REC-SVG-20010904/DTD/svg10.dtd">
<svg version="1.0" xmlns="http://www.w3.org/2000/svg"
 width="596.000000pt" height="596.000000pt" viewBox="0 0 596.000000 596.000000"
 preserveAspectRatio="xMidYMid meet">
<metadata>
Created by potrace 1.14, written by Peter Selinger 2001-2017
</metadata>
<g transform="translate(0.000000,596.000000) scale(0.100000,-0.100000)"
fill="#000000" stroke="none">
<path d="M976 5877 c-18 -13 -18 -127 -20 -2858 l-1 -2844 -468 -5 c-500 -5
-486 -4 -487 -54 0 -48 -155 -45 2980 -45 2433 0 2948 2 2963 13 21 16 22 49
1 70 -14 14 -250 16 -2450 16 l-2435 0 1 33 c1 30 2 474 2 507 0 8 -1 332 0
720 0 388 0 712 -1 720 0 8 0 116 0 240 1 124 1 232 0 240 0 8 0 116 0 240 1
124 1 232 0 240 0 8 0 116 0 240 1 124 1 232 0 240 0 8 0 116 0 240 1 124 1
232 0 240 0 8 0 116 0 240 1 124 1 232 0 240 0 8 0 107 0 219 l0 203 408 409
408 409 1359 -2 1359 -3 0 -399 c1 -270 -2 -399 -10 -401 -17 -4 -139 -35
-150 -38 -37 -11 -121 -64 -165 -104 -194 -175 -238 -452 -109 -681 69 -123
186 -214 326 -255 28 -9 54 -13 57 -10 3 4 6 1 6 -6 0 -6 -158 -170 -351 -363
-193 -193 -357 -361 -364 -372 -13 -21 -5 -64 12 -67 47 -8 58 1 346 290 163
163 320 320 350 349 l53 53 0 -618 -1 -619 -364 -364 c-275 -275 -363 -370
-363 -388 -1 -27 8 -37 40 -47 21 -6 65 35 378 347 195 194 356 355 358 356 3
2 160 -151 349 -341 190 -190 355 -350 366 -357 33 -17 71 11 71 52 0 5 -165
176 -367 379 l-368 368 1 603 c1 332 2 609 3 616 1 6 155 -142 344 -331 189
-189 351 -346 361 -350 23 -9 66 20 66 45 0 13 -133 154 -367 389 -203 203
-370 371 -372 374 -2 2 5 4 15 4 29 -1 65 11 124 39 279 131 395 471 256 745
-71 141 -223 259 -368 288 -32 6 -58 17 -59 23 -1 6 -2 203 -3 437 -1 345 -4
429 -15 442 -12 16 -154 17 -1850 17 -1507 0 -1840 -2 -1855 -13z m754 -90 c0
-1 -151 -153 -335 -337 l-335 -335 0 338 0 337 335 0 c184 0 335 -1 335 -3z
m3022 -917 c154 -41 286 -179 321 -337 33 -145 -8 -295 -110 -404 -38 -41
-120 -101 -143 -105 -3 0 -18 -6 -33 -12 -63 -27 -198 -33 -264 -12 -232 72
-366 281 -328 515 12 75 61 170 118 229 119 121 281 167 439 126z"/>
</g>
</svg>
